# xmcd
#
# Track frame offsets: 
#        150
#        19480
#        33472
#        49462
#        72015
#        91567
#        108965
#        124522
#        143537
#        161855
#
# Disc length: 2444 seconds
#
# Revision: 2
# Processed by: cddbd v1.5.2PL0 Copyright (c) Steve Scherf et al.
# Submitted via: ExactAudioCopyFreeDBPlugin 1.0
#
DISCID=7f098a0a
DTITLE=Michael Sembello - Bossa Nova Hotel
DYEAR=1983
DGENRE=Pop
TTITLE0=Automatic Man
TTITLE1=First Time
TTITLE2=Cowboy
TTITLE3=I'ts Over
TTITLE4=Maniac
TTITLE5=Godzilla
TTITLE6=Talk
TTITLE7=Cadillac
TTITLE8=Lay Back
TTITLE9=Superman
EXTD=YEAR: 1983
EXTT0=
EXTT1=
EXTT2=
EXTT3=
EXTT4=
EXTT5=
EXTT6=
EXTT7=
EXTT8=
EXTT9=
PLAYORDER=
